<svg width="10" height="10" viewBox="0 0 10 10" fill="none" xmlns="http://www.w3.org/2000/svg">
<g id="join">
<path id="Vector" d="M3.02625 4.51302L3.02618 4.51296L3.02127 4.51857L2.77435 4.80041L2.60117 4.99808L2.77433 5.19577L6.17814 9.0818L6.17814 9.0818L6.17911 9.0829C6.29706 9.21624 6.46543 9.3 6.65056 9.3C6.8357 9.3 7.00406 9.21624 7.12201 9.0829L7.12201 9.0829L7.1224 9.08246C7.18079 9.0162 7.22534 8.93949 7.25518 8.85762C7.28501 8.77575 7.3 8.68908 7.3 8.60229C7.3 8.5155 7.28501 8.42883 7.25518 8.34696C7.2254 8.26524 7.18095 8.18867 7.12273 8.12249C7.12262 8.12236 7.12251 8.12224 7.1224 8.12211L4.38689 4.99896L7.12234 1.87774C7.12246 1.87761 7.12258 1.87747 7.1227 1.87734C7.18092 1.81119 7.22536 1.73465 7.25514 1.65297C7.28497 1.57112 7.29997 1.48447 7.29997 1.3977C7.29997 1.31094 7.28497 1.22428 7.25514 1.14244C7.22533 1.06066 7.18082 0.984041 7.1225 0.917844C6.86605 0.625722 6.43132 0.629011 6.17816 0.917968L3.03807 4.50018L3.02625 4.51302Z" fill="#2965FF" stroke="#2965FF" stroke-width="0.6"/>
</g>
</svg>
